<svg xmlns="http://www.w3.org/2000/svg" version="1.1" xmlns:xlink="http://www.w3.org/1999/xlink" xmlns:svgjs="http://svgjs.dev/svgjs" width="1000" height="1000" viewBox="0 0 1000 1000"><g transform="matrix(1,0,0,1,0,0.00029520663116500145)"><svg viewBox="0 0 280 280" data-background-color="#ffffff" preserveAspectRatio="xMidYMid meet" height="1000" width="1000" xmlns="http://www.w3.org/2000/svg" xmlns:xlink="http://www.w3.org/1999/xlink"><defs></defs><g id="tight-bounds" transform="matrix(1,0,0,1,0,-5.684341886080802e-14)"><svg viewBox="0 0 280 280" height="280" width="280"><g><svg viewBox="0 0 280 280" height="280" width="280"><g><svg viewBox="0 0 280 280" height="280" width="280"><g><svg viewBox="0 0 280 280" height="280" width="280"><g><svg viewBox="0 0 280 280" height="280" width="280"><g transform="matrix(1,0,0,1,57.86470156577529,57.50420886156945)"><svg viewBox="0 0 164.27059686844942 164.9915822768611" height="164.9915822768611" width="164.27059686844942"><g><circle r="82" cx="82.49579113843055" cy="82.49579113843055" fill="#5dd8a1" data-fill-palette-color="accent"></circle><svg xmlns="http://www.w3.org/2000/svg" xmlns:xlink="http://www.w3.org/1999/xlink" version="1.1" x="24.5946516132845" y="24.5946516132845" viewBox="9.607634544372559 5.763999938964844 12.786282539367676 23.711997985839844" enable-background="new 0 0 32 32" xml:space="preserve" height="115.8022790502921" width="115.08129364188041" class="icon-o-0" data-fill-palette-color="quaternary" id="o-0"><path d="M21.214 16.914c-0.61-1.104-1.358-1.999-2.108-2.624-0.875 0.641-1.94 1.031-3.104 1.031s-2.231-0.391-3.105-1.031c-0.75 0.625-1.498 1.519-2.111 2.624-1.422 2.562-1.579 5.191-0.351 5.873 0.55 0.312 1.127 0.078 1.723-0.496-0.105 0.582-0.167 1.213-0.167 1.873 0 2.938 1.139 5.312 2.543 5.312 0.846 0 1.265-0.865 1.466-2.188 0.201 1.312 0.62 2.188 1.465 2.188 1.396 0 2.545-2.375 2.545-5.312 0-0.66-0.062-1.291-0.168-1.873 0.598 0.574 1.174 0.812 1.725 0.496C22.796 22.105 22.636 19.477 21.214 16.914zM16 14.321c2.363 0 4.279-1.916 4.279-4.279S18.363 5.764 16 5.764s-4.28 1.916-4.28 4.279S13.637 14.321 16 14.321z" fill="#ffffff" data-fill-palette-color="quaternary"></path></svg></g></svg></g><path d="M20.472 107.391v0c-0.093 0.29-0.266 0.499-0.518 0.629-0.259 0.127-0.536 0.144-0.832 0.048v0l-14.667-4.711c-0.296-0.095-0.509-0.269-0.639-0.521-0.136-0.254-0.158-0.526-0.064-0.816v0c0.101-0.316 0.308-0.54 0.618-0.672v0l15.857-5.534-12.101-3.887c-0.296-0.095-0.509-0.269-0.638-0.521-0.136-0.254-0.158-0.526-0.065-0.815v0c0.095-0.296 0.272-0.508 0.531-0.636 0.25-0.123 0.523-0.137 0.819-0.041v0l14.667 4.711c0.296 0.095 0.513 0.267 0.651 0.514 0.13 0.252 0.147 0.526 0.052 0.823v0c-0.042 0.132-0.116 0.26-0.222 0.386-0.101 0.134-0.225 0.225-0.371 0.273v0l-15.846 5.537 12.071 3.877c0.296 0.095 0.512 0.27 0.648 0.524 0.127 0.259 0.144 0.536 0.049 0.832zM29.964 84.673v0c-0.595 1.178-1.336 2.155-2.223 2.93-0.89 0.781-1.874 1.342-2.951 1.681-1.074 0.333-2.201 0.449-3.382 0.348-1.174-0.098-2.35-0.444-3.528-1.039v0c-1.166-0.589-2.137-1.327-2.912-2.214-0.775-0.887-1.348-1.862-1.717-2.924-0.367-1.068-0.5-2.192-0.399-3.372 0.098-1.174 0.444-2.35 1.039-3.528v0c0.586-1.16 1.324-2.13 2.214-2.912 0.887-0.775 1.871-1.335 2.951-1.68 1.08-0.345 2.207-0.469 3.381-0.372 1.174 0.098 2.344 0.441 3.51 1.03v0c1.178 0.595 2.155 1.336 2.93 2.223 0.781 0.89 1.354 1.872 1.718 2.947 0.363 1.074 0.496 2.198 0.399 3.372-0.101 1.18-0.444 2.35-1.03 3.51zM28.215 83.79v0c0.446-0.882 0.696-1.777 0.753-2.686 0.059-0.915-0.055-1.793-0.342-2.635-0.287-0.842-0.74-1.601-1.358-2.277-0.615-0.682-1.37-1.25-2.265-1.702v0c-0.882-0.446-1.784-0.715-2.704-0.808-0.911-0.096-1.794-0.012-2.649 0.253-0.848 0.269-1.619 0.7-2.314 1.294-0.692 0.588-1.26 1.322-1.706 2.204v0c-0.455 0.901-0.714 1.804-0.776 2.709-0.062 0.905 0.053 1.773 0.347 2.603 0.3 0.833 0.754 1.596 1.363 2.291 0.615 0.698 1.364 1.27 2.246 1.715v0c0.895 0.452 1.802 0.717 2.723 0.795 0.921 0.078 1.802-0.011 2.644-0.268 0.842-0.256 1.612-0.677 2.309-1.261 0.698-0.584 1.274-1.327 1.729-2.227zM44.003 63.148v0c-0.749 0.958-1.629 1.713-2.64 2.266-1.016 0.548-2.089 0.876-3.218 0.984-1.133 0.114-2.268 0.012-3.405-0.307-1.142-0.323-2.209-0.872-3.2-1.647v0c-0.98-0.766-1.761-1.658-2.343-2.674-0.582-1.017-0.955-2.094-1.119-3.231-0.163-1.127-0.103-2.247 0.179-3.36 0.282-1.113 0.802-2.154 1.56-3.123v0c0.702-0.898 1.433-1.586 2.193-2.063 0.769-0.478 1.68-0.836 2.734-1.073v0c0.147-0.043 0.282-0.047 0.404-0.012 0.121 0.025 0.22 0.071 0.298 0.14 0.077 0.069 0.154 0.156 0.231 0.26v0c0.166 0.147 0.253 0.333 0.261 0.559 0.002 0.221-0.068 0.434-0.21 0.639-0.133 0.203-0.34 0.339-0.622 0.408v0c-0.741 0.14-1.404 0.376-1.989 0.709-0.585 0.332-1.173 0.877-1.764 1.634v0c-0.562 0.719-0.943 1.509-1.143 2.37-0.194 0.866-0.226 1.736-0.094 2.611 0.132 0.875 0.426 1.71 0.883 2.506 0.451 0.792 1.055 1.483 1.812 2.075v0c0.768 0.6 1.595 1.028 2.483 1.284 0.883 0.251 1.764 0.336 2.645 0.253 0.886-0.079 1.718-0.323 2.495-0.734 0.777-0.41 1.446-0.975 2.009-1.693v0c0.49-0.626 0.846-1.295 1.069-2.007 0.223-0.712 0.345-1.468 0.365-2.268v0c0.003-0.296 0.087-0.533 0.253-0.71 0.165-0.178 0.369-0.281 0.612-0.311 0.243-0.03 0.481 0.047 0.715 0.23v0c0.12 0.094 0.212 0.201 0.275 0.321 0.074 0.119 0.113 0.259 0.118 0.421v0c0.044 1.043-0.097 2.026-0.422 2.947-0.324 0.931-0.799 1.796-1.425 2.596zM55.527 51.065v0c-0.956 0.91-1.982 1.582-3.077 2.014-1.101 0.437-2.215 0.635-3.344 0.593-1.123-0.047-2.224-0.316-3.302-0.807-1.073-0.486-2.065-1.207-2.975-2.163v0c-0.901-0.946-1.567-1.967-2-3.063-0.433-1.096-0.645-2.206-0.637-3.33 0.013-1.129 0.265-2.232 0.756-3.311 0.486-1.073 1.207-2.065 2.163-2.975v0c0.941-0.896 1.962-1.563 3.063-2 1.096-0.433 2.21-0.63 3.343-0.592 1.133 0.038 2.236 0.299 3.31 0.785 1.073 0.486 2.06 1.202 2.961 2.148v0c0.91 0.956 1.582 1.982 2.014 3.078 0.437 1.101 0.647 2.218 0.629 3.352-0.018 1.134-0.27 2.237-0.756 3.31-0.491 1.078-1.207 2.065-2.148 2.961zM54.176 49.646v0c0.716-0.681 1.253-1.441 1.611-2.278 0.363-0.842 0.55-1.707 0.562-2.596 0.012-0.889-0.16-1.756-0.515-2.601-0.351-0.849-0.871-1.637-1.563-2.363v0c-0.681-0.716-1.44-1.272-2.276-1.669-0.826-0.397-1.686-0.613-2.579-0.65-0.889-0.032-1.76 0.116-2.614 0.441-0.849 0.321-1.631 0.823-2.347 1.505v0c-0.731 0.696-1.278 1.46-1.64 2.291-0.363 0.832-0.545 1.688-0.547 2.568 0.003 0.885 0.174 1.757 0.515 2.616 0.345 0.864 0.859 1.654 1.54 2.369v0c0.691 0.726 1.457 1.28 2.298 1.662 0.841 0.382 1.701 0.594 2.58 0.636 0.879 0.041 1.745-0.096 2.599-0.413 0.853-0.316 1.646-0.822 2.376-1.518zM72.666 37.019l-7.626 5.519c-0.246 0.178-0.509 0.245-0.79 0.2-0.284-0.05-0.517-0.202-0.699-0.454v0l-9.031-12.481c-0.174-0.241-0.238-0.506-0.192-0.795 0.048-0.299 0.187-0.532 0.417-0.698v0c0.241-0.174 0.511-0.237 0.81-0.189 0.29 0.046 0.521 0.19 0.695 0.431v0l8.423 11.64 6.753-4.886c0.246-0.178 0.512-0.247 0.798-0.206 0.295 0.042 0.53 0.184 0.704 0.425v0c0.174 0.241 0.235 0.508 0.183 0.801-0.05 0.284-0.199 0.515-0.445 0.693zM84.576 30.266l-8.185 4.65c-0.264 0.15-0.533 0.188-0.807 0.112-0.277-0.081-0.492-0.257-0.645-0.528v0l-7.609-13.394c-0.147-0.258-0.181-0.529-0.104-0.812 0.08-0.292 0.244-0.508 0.491-0.648v0c0.258-0.147 0.534-0.18 0.825-0.1 0.283 0.078 0.497 0.246 0.645 0.505v0l7.097 12.493 7.247-4.117c0.264-0.15 0.536-0.189 0.816-0.117 0.289 0.074 0.506 0.241 0.653 0.499v0c0.147 0.258 0.178 0.531 0.094 0.817-0.081 0.277-0.254 0.49-0.518 0.64zM97.962 24.559l-9.449 4.034c-0.292 0.125-0.57 0.134-0.833 0.029-0.266-0.112-0.46-0.311-0.581-0.597v0l-6.049-14.168c-0.122-0.286-0.13-0.561-0.025-0.824 0.103-0.269 0.301-0.466 0.593-0.591v0l9.449-4.034c0.292-0.125 0.564-0.139 0.815-0.044 0.254 0.102 0.439 0.29 0.556 0.563v0c0.111 0.261 0.115 0.515 0.01 0.763-0.105 0.248-0.303 0.434-0.596 0.558v0l-8.476 3.619 2.243 5.253 6.121-2.613c0.286-0.122 0.558-0.137 0.816-0.044 0.251 0.096 0.437 0.283 0.556 0.563v0c0.111 0.261 0.115 0.515 0.009 0.763-0.111 0.25-0.31 0.437-0.595 0.558v0l-6.121 2.613 2.295 5.378 8.476-3.619c0.292-0.125 0.564-0.139 0.816-0.044 0.251 0.096 0.432 0.274 0.544 0.535v0c0.119 0.28 0.127 0.543 0.022 0.791-0.105 0.248-0.303 0.434-0.596 0.558zM108.987 21.664v0c-1.171 0.331-2.327 0.42-3.468 0.268-1.143-0.158-2.203-0.527-3.178-1.106-0.982-0.577-1.837-1.331-2.566-2.259-0.731-0.935-1.267-2.009-1.609-3.219v0c-0.338-1.197-0.442-2.378-0.31-3.543 0.131-1.164 0.466-2.254 1.005-3.268 0.535-1.006 1.245-1.874 2.13-2.605 0.885-0.731 1.92-1.264 3.104-1.598v0c1.097-0.31 2.093-0.433 2.987-0.369 0.903 0.068 1.849 0.318 2.84 0.749v0c0.144 0.053 0.255 0.129 0.334 0.229 0.083 0.091 0.136 0.188 0.157 0.29 0.022 0.102 0.033 0.217 0.033 0.346v0c0.047 0.217 0.007 0.418-0.12 0.605-0.129 0.18-0.311 0.31-0.547 0.391-0.227 0.086-0.475 0.073-0.743-0.038v0c-0.681-0.325-1.355-0.526-2.023-0.603-0.668-0.077-1.464 0.015-2.389 0.276v0c-0.878 0.248-1.652 0.66-2.322 1.237-0.668 0.584-1.208 1.267-1.618 2.052-0.411 0.784-0.667 1.632-0.769 2.543-0.103 0.905-0.025 1.82 0.237 2.745v0c0.265 0.938 0.68 1.772 1.245 2.503 0.564 0.724 1.225 1.313 1.985 1.766 0.762 0.46 1.577 0.754 2.447 0.882 0.869 0.128 1.743 0.068 2.62-0.179v0c0.765-0.216 1.448-0.545 2.048-0.988 0.6-0.442 1.145-0.98 1.635-1.614v0c0.177-0.237 0.385-0.378 0.623-0.424 0.238-0.046 0.464-0.009 0.678 0.111 0.213 0.119 0.36 0.322 0.441 0.608v0c0.041 0.146 0.052 0.287 0.033 0.421-0.011 0.14-0.062 0.276-0.154 0.41v0c-0.581 0.868-1.275 1.577-2.082 2.128-0.812 0.559-1.706 0.977-2.683 1.253zM122.518 18.761v0c-0.28 0.04-0.538-0.027-0.773-0.202-0.236-0.182-0.375-0.421-0.417-0.715v0l-2.353-16.315 2.113-0.305 2.353 16.315c0.042 0.294-0.024 0.562-0.198 0.804-0.169 0.234-0.41 0.373-0.725 0.418zM126.327 2.469l-12.036 1.736c-0.294 0.042-0.543-0.016-0.748-0.175-0.204-0.159-0.327-0.379-0.367-0.659v0c-0.043-0.301 0.011-0.553 0.163-0.757 0.152-0.203 0.375-0.326 0.669-0.368v0l12.036-1.736c0.301-0.043 0.553 0.011 0.757 0.163 0.203 0.152 0.327 0.379 0.37 0.68v0c0.04 0.28-0.015 0.526-0.166 0.736-0.151 0.21-0.377 0.337-0.678 0.38zM132.77 17.534v0c-0.317 0.024-0.583-0.056-0.798-0.241-0.216-0.192-0.335-0.442-0.359-0.753v0l-1.167-15.361c-0.024-0.31 0.057-0.573 0.242-0.787 0.184-0.222 0.435-0.345 0.751-0.369v0c0.317-0.024 0.58 0.06 0.789 0.252 0.208 0.185 0.324 0.433 0.348 0.743v0l1.166 15.361c0.024 0.31-0.053 0.576-0.23 0.797-0.178 0.215-0.425 0.334-0.742 0.358zM145.742 18.003v0c-1.319-0.046-2.517-0.31-3.592-0.79-1.083-0.481-2.003-1.139-2.763-1.975-0.752-0.836-1.33-1.81-1.733-2.924-0.404-1.107-0.582-2.32-0.536-3.639v0c0.046-1.305 0.309-2.496 0.79-3.571 0.48-1.076 1.125-2.004 1.933-2.785 0.816-0.78 1.781-1.372 2.895-1.776 1.107-0.404 2.32-0.582 3.639-0.536v0c1.299 0.046 2.489 0.309 3.572 0.79 1.076 0.48 1.997 1.139 2.762 1.974 0.766 0.836 1.351 1.807 1.755 2.915 0.404 1.107 0.583 2.313 0.536 3.618v0c-0.046 1.319-0.31 2.517-0.79 3.593-0.481 1.083-1.132 2.014-1.955 2.794-0.823 0.78-1.788 1.372-2.894 1.776-1.114 0.403-2.32 0.582-3.619 0.536zM145.811 16.045v0c0.988 0.035 1.906-0.113 2.754-0.442 0.855-0.33 1.605-0.801 2.249-1.415 0.644-0.614 1.143-1.343 1.498-2.188 0.362-0.845 0.56-1.768 0.595-2.77v0c0.035-0.988-0.099-1.919-0.399-2.794-0.295-0.868-0.741-1.634-1.341-2.298-0.599-0.657-1.314-1.177-2.144-1.558-0.823-0.382-1.729-0.59-2.717-0.625v0c-1.008-0.035-1.937 0.108-2.784 0.431-0.848 0.323-1.587 0.791-2.218 1.405-0.63 0.621-1.133 1.354-1.509 2.198-0.376 0.851-0.581 1.771-0.615 2.759v0c-0.035 1.002 0.105 1.937 0.42 2.805 0.315 0.869 0.766 1.631 1.351 2.288 0.585 0.657 1.29 1.179 2.113 1.568 0.823 0.389 1.739 0.601 2.747 0.636zM158.427 18.855v0c-0.299-0.054-0.53-0.198-0.691-0.431-0.16-0.24-0.213-0.513-0.158-0.818v0l2.745-15.159c0.055-0.306 0.2-0.54 0.433-0.701 0.234-0.168 0.501-0.225 0.8-0.172v0c0.326 0.059 0.576 0.234 0.748 0.526v0l7.567 14.992 2.265-12.506c0.055-0.306 0.2-0.54 0.433-0.701 0.234-0.168 0.501-0.225 0.8-0.172v0c0.306 0.055 0.539 0.203 0.699 0.443 0.155 0.232 0.204 0.501 0.149 0.807v0l-2.745 15.158c-0.055 0.306-0.197 0.544-0.424 0.714-0.233 0.162-0.502 0.215-0.808 0.159v0c-0.136-0.025-0.273-0.081-0.412-0.169-0.147-0.083-0.253-0.193-0.319-0.332v0l-7.57-14.983-2.259 12.476c-0.055 0.306-0.2 0.543-0.434 0.712-0.24 0.16-0.513 0.213-0.819 0.157zM181.997 24.637v0c-0.301-0.102-0.514-0.28-0.64-0.534-0.123-0.261-0.135-0.538-0.035-0.833v0l4.938-14.592c0.1-0.295 0.277-0.505 0.531-0.63 0.256-0.132 0.535-0.147 0.836-0.046v0c0.301 0.102 0.51 0.282 0.627 0.541 0.119 0.252 0.129 0.525 0.029 0.82v0l-4.939 14.592c-0.1 0.295-0.274 0.509-0.524 0.643-0.248 0.128-0.522 0.141-0.823 0.039zM187.551 26.944v0c-0.277-0.125-0.466-0.32-0.567-0.585-0.098-0.271-0.083-0.549 0.045-0.832v0l6.326-14.047c0.128-0.284 0.324-0.476 0.589-0.576 0.268-0.107 0.54-0.098 0.818 0.028v0c0.302 0.136 0.502 0.366 0.599 0.69v0l3.721 16.377 5.219-11.589c0.128-0.284 0.324-0.476 0.589-0.576 0.268-0.107 0.54-0.098 0.818 0.027v0c0.284 0.128 0.474 0.327 0.572 0.599 0.094 0.262 0.077 0.535-0.051 0.818v0l-6.325 14.047c-0.128 0.284-0.322 0.48-0.584 0.59-0.265 0.1-0.539 0.087-0.823-0.041v0c-0.126-0.057-0.246-0.145-0.359-0.264-0.122-0.116-0.199-0.249-0.229-0.399v0l-3.726-16.368-5.206 11.561c-0.128 0.284-0.326 0.479-0.594 0.585-0.271 0.098-0.549 0.083-0.832-0.045zM208.787 38.225v0c-0.262-0.181-0.418-0.411-0.469-0.69-0.047-0.285 0.018-0.555 0.195-0.81v0l8.761-12.672c0.177-0.256 0.405-0.409 0.683-0.46 0.283-0.057 0.555 0.006 0.817 0.186v0l3.701 2.559c0.91 0.629 1.581 1.396 2.014 2.3 0.437 0.899 0.606 1.839 0.507 2.821-0.093 0.986-0.464 1.948-1.112 2.885v0c-0.629 0.91-1.384 1.576-2.266 2.001-0.872 0.422-1.803 0.585-2.794 0.488-0.987-0.103-1.936-0.469-2.846-1.098v0l-2.831-1.957-2.877 4.161c-0.177 0.256-0.404 0.414-0.681 0.475-0.273 0.055-0.54-0.008-0.802-0.189zM218.506 26.026l-4.221 6.106 2.831 1.957c0.58 0.401 1.186 0.631 1.817 0.689 0.628 0.064 1.227-0.043 1.797-0.32 0.565-0.282 1.047-0.713 1.448-1.293v0c0.428-0.62 0.677-1.246 0.745-1.879 0.063-0.637-0.041-1.247-0.311-1.829-0.27-0.582-0.695-1.073-1.275-1.473v0zM227.136 52.865l-7.752-6.742c-0.24-0.209-0.37-0.454-0.39-0.737-0.015-0.288 0.079-0.549 0.284-0.784v0l10.109-11.624c0.204-0.235 0.448-0.362 0.731-0.382 0.287-0.025 0.551 0.067 0.79 0.276v0l7.752 6.742c0.24 0.209 0.372 0.447 0.395 0.714 0.019 0.273-0.069 0.522-0.264 0.746v0c-0.186 0.214-0.413 0.328-0.681 0.342-0.268 0.014-0.523-0.084-0.763-0.292v0l-6.954-6.049-3.748 4.311 5.022 4.367c0.235 0.204 0.366 0.442 0.395 0.715 0.024 0.268-0.064 0.516-0.264 0.746v0c-0.186 0.214-0.413 0.328-0.682 0.341-0.274 0.009-0.528-0.088-0.762-0.292v0l-5.022-4.368-3.837 4.412 6.954 6.048c0.24 0.209 0.372 0.447 0.395 0.715 0.024 0.268-0.058 0.509-0.244 0.722v0c-0.2 0.229-0.434 0.351-0.702 0.365-0.268 0.014-0.523-0.084-0.762-0.292zM230.288 56.323v0c-0.214-0.235-0.314-0.494-0.301-0.777 0.018-0.288 0.143-0.536 0.372-0.746v0l11.393-10.369c0.23-0.209 0.487-0.307 0.77-0.294 0.288 0.009 0.539 0.131 0.753 0.366v0l2.757 3.028c0.744 0.818 1.236 1.707 1.474 2.667 0.244 0.956 0.224 1.889-0.058 2.801-0.278 0.916-0.816 1.738-1.613 2.463v0c-0.756 0.688-1.594 1.119-2.512 1.291-0.913 0.177-1.829 0.095-2.748-0.247-0.918-0.342-1.75-0.921-2.494-1.739v0l-2.044-2.246-4.24 3.859c-0.23 0.209-0.487 0.312-0.771 0.308-0.278-0.008-0.525-0.13-0.738-0.365zM236.582 63.239v0c-0.14-0.153-0.23-0.314-0.271-0.483-0.041-0.168-0.035-0.356 0.019-0.564v0l2.138-7.539 1.853 1.174-1.97 6.923c-0.124 0.459-0.375 0.738-0.751 0.838-0.377 0.1-0.716-0.017-1.018-0.349zM242.507 46.631l-4.991 4.543 2.045 2.246c0.484 0.532 1.012 0.906 1.583 1.124 0.572 0.218 1.149 0.277 1.731 0.177 0.572-0.1 1.093-0.364 1.564-0.792v0c0.496-0.451 0.836-0.971 1.02-1.559 0.18-0.593 0.193-1.19 0.04-1.789-0.148-0.604-0.463-1.172-0.947-1.703v0zM241.352 70.258v0c-0.563-0.778-0.971-1.596-1.225-2.454-0.263-0.859-0.363-1.699-0.3-2.52 0.063-0.821 0.283-1.561 0.66-2.218v0c0.149-0.278 0.366-0.431 0.653-0.459 0.277-0.03 0.548 0.073 0.812 0.308v0c0.192 0.16 0.308 0.379 0.347 0.657 0.041 0.269-0.006 0.529-0.14 0.78v0c-0.211 0.392-0.325 0.854-0.341 1.385-0.02 0.526 0.066 1.087 0.257 1.682 0.192 0.595 0.48 1.158 0.865 1.691v0c0.442 0.61 0.936 1.088 1.484 1.433 0.547 0.355 1.11 0.549 1.689 0.583 0.588 0.035 1.148-0.14 1.68-0.524v0c0.678-0.49 1.088-1.184 1.233-2.082 0.143-0.888-0.136-1.957-0.837-3.208v0c-0.913-1.592-1.311-3.074-1.194-4.446 0.116-1.372 0.709-2.445 1.779-3.218v0c0.79-0.571 1.615-0.84 2.475-0.806 0.866 0.03 1.716 0.315 2.551 0.855 0.83 0.534 1.583 1.269 2.259 2.204v0c0.518 0.717 0.871 1.422 1.056 2.115 0.19 0.699 0.258 1.383 0.206 2.052-0.063 0.668-0.225 1.323-0.486 1.964v0c-0.135 0.32-0.325 0.542-0.568 0.666-0.239 0.13-0.49 0.142-0.755 0.035v0c-0.281-0.129-0.47-0.343-0.566-0.64-0.1-0.303-0.089-0.588 0.034-0.856v0c0.197-0.424 0.314-0.863 0.352-1.317 0.044-0.458 0.001-0.93-0.129-1.417-0.13-0.486-0.385-0.992-0.765-1.518v0c-0.645-0.915-1.371-1.542-2.179-1.879-0.809-0.328-1.577-0.228-2.304 0.298v0c-0.386 0.279-0.675 0.642-0.865 1.086-0.185 0.441-0.221 1.004-0.108 1.69 0.118 0.682 0.455 1.513 1.01 2.494v0c0.897 1.594 1.266 3.047 1.105 4.357-0.165 1.305-0.838 2.385-2.02 3.239v0c-0.678 0.49-1.366 0.788-2.066 0.894-0.704 0.1-1.4 0.04-2.087-0.179-0.683-0.214-1.329-0.557-1.936-1.031-0.617-0.475-1.162-1.04-1.636-1.696zM250.032 84.838v0c-0.62-1.165-0.992-2.334-1.115-3.506-0.126-1.178-0.017-2.304 0.327-3.38 0.347-1.069 0.901-2.057 1.663-2.964 0.756-0.904 1.717-1.666 2.882-2.286v0c1.153-0.614 2.315-0.982 3.487-1.105 1.172-0.123 2.298-0.029 3.379 0.28 1.084 0.315 2.079 0.854 2.986 1.616 0.904 0.756 1.666 1.717 2.286 2.882v0c0.611 1.147 0.979 2.309 1.105 3.487 0.123 1.172 0.014 2.298-0.326 3.38-0.34 1.082-0.888 2.074-1.645 2.978-0.756 0.904-1.711 1.662-2.863 2.276v0c-1.165 0.62-2.334 0.992-3.506 1.115-1.178 0.126-2.31 0.028-3.398-0.293-1.087-0.322-2.083-0.86-2.986-1.617-0.907-0.762-1.666-1.717-2.276-2.863zM251.762 83.917v0c0.464 0.872 1.052 1.593 1.762 2.162 0.713 0.575 1.497 0.988 2.35 1.239 0.854 0.25 1.735 0.317 2.644 0.201 0.912-0.11 1.811-0.4 2.695-0.871v0c0.872-0.464 1.612-1.046 2.219-1.745 0.604-0.689 1.043-1.46 1.318-2.311 0.269-0.848 0.361-1.727 0.276-2.637-0.082-0.904-0.355-1.792-0.819-2.664v0c-0.474-0.891-1.063-1.622-1.768-2.195-0.704-0.573-1.48-0.978-2.327-1.215-0.853-0.235-1.739-0.303-2.658-0.206-0.925 0.101-1.824 0.384-2.696 0.848v0c-0.885 0.471-1.624 1.06-2.218 1.768-0.594 0.708-1.029 1.479-1.304 2.315-0.275 0.836-0.375 1.707-0.299 2.614 0.076 0.907 0.351 1.806 0.825 2.697zM255.646 96.244v0c-0.103-0.286-0.094-0.557 0.026-0.813 0.127-0.259 0.337-0.441 0.63-0.547v0l14.497-5.213c0.293-0.105 0.567-0.097 0.823 0.023 0.263 0.118 0.446 0.321 0.549 0.607v0c0.112 0.312 0.086 0.616-0.08 0.91v0l-9.19 14.058 11.96-4.301c0.293-0.105 0.567-0.097 0.824 0.023 0.263 0.118 0.446 0.321 0.549 0.607v0c0.105 0.293 0.094 0.568-0.033 0.827-0.123 0.25-0.331 0.428-0.624 0.533v0l-14.496 5.213c-0.293 0.105-0.569 0.102-0.83-0.01-0.256-0.121-0.437-0.327-0.543-0.62v0c-0.047-0.13-0.067-0.277-0.059-0.441-0.002-0.168 0.041-0.316 0.127-0.443v0l9.18-14.054-11.931 4.291c-0.293 0.105-0.57 0.099-0.833-0.02-0.259-0.127-0.441-0.337-0.546-0.63zM8.763 181.62v0c-0.093-0.29-0.075-0.56 0.055-0.813 0.136-0.254 0.352-0.429 0.648-0.524v0l14.667-4.711c0.296-0.095 0.57-0.078 0.823 0.052 0.259 0.127 0.435 0.336 0.527 0.625v0c0.101 0.316 0.064 0.618-0.111 0.907v0l-9.668 13.733 12.101-3.887c0.296-0.095 0.57-0.078 0.822 0.051 0.259 0.127 0.435 0.336 0.528 0.626v0c0.095 0.296 0.075 0.571-0.062 0.825-0.132 0.246-0.346 0.416-0.642 0.511v0l-14.667 4.712c-0.296 0.095-0.572 0.082-0.829-0.039-0.252-0.13-0.426-0.342-0.52-0.638v0c-0.042-0.132-0.057-0.279-0.045-0.444 0.004-0.168 0.052-0.314 0.143-0.437v0l9.657-13.73-12.071 3.878c-0.296 0.095-0.574 0.079-0.832-0.049-0.254-0.136-0.429-0.352-0.524-0.648zM18.58 206.327v0c-0.595-1.178-0.941-2.354-1.039-3.528-0.101-1.18 0.032-2.304 0.399-3.373 0.37-1.062 0.945-2.038 1.727-2.927 0.775-0.887 1.752-1.628 2.93-2.224v0c1.166-0.589 2.336-0.932 3.51-1.029 1.174-0.098 2.298 0.02 3.372 0.352 1.077 0.339 2.061 0.899 2.951 1.68 0.887 0.775 1.628 1.752 2.223 2.931v0c0.586 1.16 0.929 2.33 1.03 3.51 0.098 1.174-0.035 2.298-0.399 3.372-0.363 1.074-0.933 2.055-1.708 2.942-0.775 0.887-1.746 1.625-2.912 2.214v0c-1.178 0.595-2.354 0.941-3.529 1.039-1.18 0.101-2.31-0.022-3.39-0.367-1.08-0.345-2.064-0.905-2.951-1.68-0.89-0.781-1.628-1.752-2.214-2.912zM20.329 205.444v0c0.446 0.882 1.017 1.615 1.715 2.2 0.701 0.591 1.475 1.02 2.323 1.288 0.848 0.269 1.728 0.355 2.639 0.259 0.915-0.09 1.819-0.361 2.714-0.814v0c0.882-0.446 1.634-1.011 2.255-1.696 0.619-0.676 1.074-1.437 1.368-2.282 0.287-0.842 0.398-1.719 0.332-2.63-0.062-0.905-0.316-1.799-0.762-2.682v0c-0.455-0.901-1.028-1.645-1.719-2.232-0.692-0.588-1.458-1.009-2.3-1.266-0.848-0.253-1.732-0.341-2.653-0.262-0.927 0.081-1.831 0.344-2.714 0.79v0c-0.895 0.452-1.646 1.025-2.256 1.719-0.609 0.695-1.06 1.457-1.353 2.287-0.293 0.83-0.412 1.699-0.356 2.607 0.056 0.908 0.312 1.813 0.767 2.714zM33.956 229.958v0c-0.749-0.958-1.27-1.994-1.562-3.108-0.287-1.118-0.346-2.238-0.18-3.36 0.163-1.127 0.536-2.204 1.119-3.231 0.589-1.031 1.379-1.934 2.37-2.708v0c0.98-0.766 2.034-1.309 3.161-1.63 1.127-0.32 2.262-0.422 3.405-0.307 1.133 0.114 2.206 0.442 3.217 0.985 1.012 0.542 1.897 1.298 2.655 2.267v0c0.702 0.898 1.194 1.773 1.473 2.624 0.279 0.861 0.406 1.832 0.383 2.913v0c0.006 0.153-0.023 0.285-0.086 0.395-0.053 0.112-0.123 0.197-0.208 0.255-0.086 0.058-0.189 0.112-0.308 0.162v0c-0.183 0.125-0.384 0.165-0.605 0.118-0.215-0.051-0.405-0.17-0.569-0.358-0.165-0.178-0.247-0.412-0.247-0.702v0c0.043-0.753-0.027-1.453-0.208-2.1-0.182-0.647-0.568-1.35-1.16-2.107v0c-0.562-0.719-1.237-1.279-2.025-1.68-0.793-0.397-1.63-0.638-2.511-0.721-0.881-0.083-1.763 0.001-2.646 0.252-0.877 0.247-1.694 0.667-2.45 1.259v0c-0.768 0.6-1.383 1.3-1.845 2.1-0.457 0.796-0.751 1.631-0.883 2.507-0.137 0.879-0.1 1.745 0.111 2.598 0.211 0.853 0.597 1.639 1.159 2.357v0c0.49 0.626 1.053 1.133 1.689 1.522 0.637 0.388 1.341 0.688 2.113 0.901v0c0.286 0.074 0.496 0.213 0.628 0.416 0.133 0.203 0.184 0.426 0.155 0.669-0.03 0.243-0.162 0.455-0.396 0.638v0c-0.12 0.094-0.246 0.157-0.377 0.191-0.133 0.043-0.279 0.047-0.438 0.013v0c-1.023-0.209-1.942-0.582-2.758-1.121-0.825-0.539-1.551-1.209-2.176-2.009zM46.733 243.422v0c-0.956-0.91-1.677-1.902-2.163-2.975-0.491-1.078-0.743-2.182-0.756-3.31-0.008-1.124 0.207-2.237 0.644-3.338 0.433-1.096 1.104-2.122 2.015-3.078v0c0.901-0.946 1.888-1.662 2.961-2.148 1.073-0.486 2.172-0.752 3.294-0.799 1.128-0.042 2.243 0.155 3.344 0.592 1.096 0.433 2.122 1.104 3.078 2.014v0c0.941 0.896 1.657 1.883 2.148 2.961 0.486 1.073 0.738 2.177 0.756 3.311 0.018 1.134-0.189 2.248-0.622 3.344-0.433 1.096-1.099 2.117-2 3.063v0c-0.91 0.956-1.902 1.677-2.975 2.163-1.078 0.491-2.184 0.755-3.317 0.793-1.133 0.038-2.248-0.16-3.344-0.593-1.101-0.437-2.122-1.104-3.063-2zM48.084 242.003v0c0.716 0.681 1.5 1.18 2.354 1.497 0.858 0.321 1.732 0.466 2.621 0.434 0.889-0.032 1.746-0.246 2.573-0.642 0.831-0.392 1.592-0.951 2.283-1.677v0c0.681-0.716 1.2-1.501 1.556-2.355 0.356-0.845 0.53-1.714 0.522-2.609-0.012-0.889-0.202-1.752-0.569-2.589-0.363-0.832-0.902-1.589-1.618-2.27v0c-0.731-0.696-1.521-1.204-2.369-1.526-0.849-0.321-1.713-0.461-2.592-0.42-0.884 0.046-1.746 0.26-2.587 0.643-0.846 0.387-1.61 0.939-2.291 1.655v0c-0.691 0.726-1.207 1.518-1.548 2.377-0.341 0.859-0.51 1.728-0.508 2.608 0.002 0.88 0.182 1.738 0.54 2.575 0.358 0.837 0.902 1.603 1.633 2.299zM65.457 258.194l-7.627-5.518c-0.246-0.178-0.392-0.407-0.436-0.688-0.041-0.285 0.03-0.554 0.212-0.806v0l9.031-12.48c0.174-0.241 0.406-0.384 0.695-0.431 0.299-0.048 0.564 0.011 0.793 0.177v0c0.241 0.174 0.385 0.411 0.433 0.71 0.046 0.29-0.017 0.555-0.191 0.796v0l-8.423 11.64 6.752 4.886c0.246 0.178 0.395 0.409 0.446 0.694 0.052 0.294-0.009 0.561-0.184 0.801v0c-0.174 0.241-0.409 0.382-0.704 0.425-0.285 0.041-0.551-0.028-0.797-0.206zM78.501 265.677l-8.184-4.65c-0.264-0.15-0.434-0.362-0.51-0.635-0.072-0.279-0.031-0.554 0.123-0.824v0l7.609-13.395c0.147-0.258 0.362-0.427 0.644-0.504 0.292-0.08 0.561-0.051 0.808 0.089v0c0.258 0.147 0.428 0.366 0.508 0.658 0.078 0.283 0.043 0.553-0.103 0.812v0l-7.097 12.493 7.247 4.117c0.264 0.15 0.437 0.364 0.518 0.64 0.084 0.286 0.052 0.558-0.094 0.817v0c-0.147 0.258-0.365 0.425-0.653 0.499-0.279 0.072-0.551 0.033-0.816-0.117zM93.133 272.001l-9.448-4.034c-0.292-0.125-0.491-0.319-0.597-0.582-0.103-0.269-0.093-0.547 0.029-0.833v0l6.048-14.168c0.122-0.286 0.315-0.482 0.578-0.587 0.266-0.112 0.545-0.106 0.837 0.019v0l9.449 4.034c0.292 0.125 0.491 0.311 0.595 0.558 0.102 0.254 0.095 0.518-0.022 0.791v0c-0.111 0.261-0.293 0.439-0.543 0.535-0.251 0.096-0.523 0.081-0.816-0.044v0l-8.476-3.619-2.243 5.254 6.121 2.613c0.286 0.122 0.485 0.308 0.596 0.559 0.105 0.248 0.097 0.511-0.022 0.791v0c-0.111 0.261-0.293 0.439-0.544 0.534-0.258 0.093-0.529 0.078-0.815-0.044v0l-6.121-2.613-2.296 5.377 8.476 3.619c0.292 0.125 0.491 0.311 0.596 0.559 0.105 0.248 0.101 0.502-0.01 0.762v0c-0.119 0.28-0.305 0.467-0.556 0.563-0.251 0.096-0.523 0.081-0.816-0.044zM105.522 275.86v0c-1.171-0.331-2.203-0.859-3.096-1.585-0.892-0.733-1.602-1.601-2.13-2.605-0.535-1.006-0.87-2.095-1.006-3.268-0.134-1.18-0.03-2.375 0.312-3.585v0c0.338-1.197 0.867-2.258 1.588-3.182 0.721-0.924 1.576-1.677 2.566-2.259 0.982-0.577 2.041-0.946 3.178-1.107 1.137-0.16 2.297-0.073 3.481 0.261v0c1.097 0.31 2.011 0.726 2.739 1.248 0.734 0.53 1.41 1.238 2.029 2.124v0c0.095 0.12 0.15 0.244 0.165 0.369 0.023 0.121 0.017 0.231-0.018 0.329-0.035 0.098-0.086 0.202-0.152 0.313v0c-0.073 0.209-0.213 0.36-0.419 0.452-0.204 0.086-0.427 0.102-0.671 0.048-0.238-0.046-0.443-0.186-0.613-0.421v0c-0.41-0.633-0.88-1.157-1.409-1.572-0.529-0.415-1.256-0.753-2.181-1.014v0c-0.878-0.248-1.753-0.301-2.626-0.16-0.875 0.148-1.692 0.449-2.452 0.902-0.76 0.453-1.422 1.042-1.985 1.766-0.562 0.718-0.973 1.539-1.234 2.463v0c-0.265 0.938-0.347 1.866-0.248 2.785 0.102 0.912 0.358 1.76 0.768 2.544 0.409 0.79 0.95 1.468 1.624 2.031 0.674 0.564 1.45 0.969 2.328 1.217v0c0.765 0.216 1.519 0.292 2.262 0.23 0.743-0.063 1.489-0.237 2.237-0.521v0c0.275-0.109 0.526-0.121 0.753-0.035 0.227 0.086 0.4 0.235 0.52 0.448 0.119 0.213 0.139 0.463 0.058 0.749v0c-0.041 0.146-0.105 0.272-0.193 0.376-0.082 0.113-0.197 0.203-0.345 0.269v0c-0.949 0.436-1.911 0.678-2.887 0.725-0.984 0.052-1.965-0.059-2.943-0.335zM120.762 278.661v0c-0.28-0.04-0.508-0.178-0.684-0.413-0.175-0.242-0.241-0.51-0.198-0.804v0l2.353-16.315 2.114 0.305-2.353 16.315c-0.042 0.294-0.182 0.532-0.418 0.715-0.228 0.177-0.499 0.242-0.814 0.197zM129.02 264.109l-12.036-1.736c-0.294-0.042-0.517-0.169-0.668-0.379-0.151-0.21-0.207-0.456-0.166-0.736v0c0.043-0.301 0.167-0.528 0.37-0.68 0.203-0.152 0.452-0.207 0.747-0.165v0l12.036 1.736c0.301 0.043 0.528 0.167 0.679 0.371 0.152 0.203 0.207 0.456 0.164 0.756v0c-0.04 0.28-0.163 0.5-0.368 0.659-0.204 0.159-0.457 0.217-0.758 0.174zM131.838 279.979v0c-0.317-0.024-0.568-0.144-0.752-0.359-0.184-0.222-0.264-0.488-0.241-0.798v0l1.167-15.361c0.024-0.31 0.143-0.557 0.358-0.742 0.216-0.192 0.482-0.275 0.798-0.251v0c0.317 0.024 0.564 0.147 0.742 0.368 0.178 0.215 0.255 0.477 0.231 0.787v0l-1.167 15.361c-0.024 0.31-0.14 0.561-0.348 0.753-0.208 0.185-0.471 0.266-0.788 0.242zM146.19 279.993v0c-1.319 0.046-2.532-0.132-3.639-0.536-1.114-0.403-2.079-0.995-2.894-1.776-0.809-0.781-1.454-1.712-1.934-2.795-0.48-1.076-0.744-2.273-0.791-3.592v0c-0.046-1.305 0.133-2.512 0.537-3.619 0.404-1.107 0.982-2.078 1.734-2.913 0.759-0.836 1.68-1.494 2.762-1.975 1.076-0.48 2.273-0.744 3.593-0.79v0c1.299-0.046 2.505 0.133 3.618 0.536 1.107 0.404 2.072 0.996 2.894 1.776 0.823 0.78 1.474 1.708 1.955 2.784 0.48 1.076 0.744 2.266 0.79 3.572v0c0.046 1.319-0.132 2.532-0.536 3.639-0.403 1.114-0.988 2.089-1.754 2.925-0.766 0.836-1.687 1.494-2.763 1.974-1.083 0.481-2.273 0.744-3.572 0.79zM146.121 278.035v0c0.988-0.035 1.893-0.246 2.717-0.635 0.83-0.389 1.545-0.912 2.144-1.569 0.599-0.657 1.046-1.42 1.34-2.288 0.301-0.868 0.435-1.803 0.4-2.805v0c-0.035-0.988-0.233-1.907-0.595-2.759-0.355-0.845-0.854-1.578-1.499-2.198-0.644-0.614-1.393-1.082-2.248-1.404-0.848-0.323-1.766-0.467-2.754-0.433v0c-1.008 0.035-1.924 0.244-2.748 0.626-0.823 0.382-1.528 0.901-2.113 1.558-0.585 0.664-1.035 1.43-1.351 2.298-0.315 0.876-0.455 1.807-0.42 2.795v0c0.035 1.002 0.241 1.924 0.616 2.769 0.375 0.844 0.878 1.574 1.509 2.187 0.63 0.614 1.369 1.086 2.217 1.416 0.848 0.33 1.777 0.477 2.785 0.442zM160.618 278.496v0c-0.299 0.054-0.565 0.001-0.798-0.161-0.234-0.168-0.379-0.405-0.435-0.711v0l-2.744-15.159c-0.055-0.306-0.002-0.576 0.159-0.808 0.16-0.24 0.39-0.387 0.689-0.441v0c0.326-0.059 0.621 0.017 0.884 0.229v0l12.345 11.387-2.265-12.506c-0.055-0.306-0.002-0.576 0.16-0.808 0.16-0.24 0.39-0.387 0.689-0.441v0c0.306-0.055 0.576 0.001 0.81 0.169 0.226 0.163 0.367 0.397 0.422 0.703v0l2.745 15.159c0.055 0.306 0.006 0.578-0.147 0.817-0.162 0.233-0.395 0.377-0.701 0.432v0c-0.136 0.025-0.284 0.02-0.445-0.014-0.166-0.026-0.305-0.092-0.416-0.199v0l-12.342-11.377 2.259 12.476c0.055 0.306 0.003 0.579-0.157 0.819-0.168 0.234-0.405 0.379-0.712 0.434zM185.94 272.262v0c-0.301 0.102-0.579 0.09-0.833-0.036-0.256-0.132-0.434-0.345-0.534-0.64v0l-4.939-14.592c-0.1-0.295-0.087-0.569 0.039-0.823 0.123-0.261 0.336-0.442 0.637-0.544v0c0.301-0.102 0.577-0.086 0.826 0.049 0.248 0.128 0.421 0.339 0.521 0.634v0l4.939 14.592c0.1 0.295 0.091 0.571-0.026 0.829-0.119 0.252-0.329 0.429-0.63 0.531zM192.6 269.519v0c-0.277 0.125-0.548 0.137-0.813 0.037-0.268-0.107-0.466-0.302-0.593-0.586v0l-6.326-14.046c-0.128-0.284-0.141-0.558-0.041-0.823 0.098-0.271 0.285-0.469 0.562-0.595v0c0.302-0.136 0.607-0.133 0.914 0.01v0l14.73 8.067-5.219-11.589c-0.128-0.284-0.141-0.558-0.041-0.823 0.098-0.271 0.285-0.469 0.563-0.594v0c0.284-0.128 0.559-0.138 0.827-0.031 0.259 0.103 0.452 0.297 0.579 0.58v0l6.326 14.046c0.128 0.284 0.146 0.56 0.055 0.829-0.1 0.265-0.292 0.461-0.576 0.589v0c-0.126 0.057-0.271 0.088-0.436 0.093-0.168 0.015-0.318-0.016-0.451-0.092v0l-14.725-8.058 5.206 11.56c0.128 0.284 0.143 0.561 0.045 0.833-0.107 0.268-0.302 0.466-0.586 0.593zM215.78 257.141v0c-0.262 0.181-0.532 0.246-0.81 0.195-0.283-0.057-0.513-0.213-0.69-0.469v0l-8.76-12.671c-0.177-0.256-0.24-0.523-0.189-0.802 0.047-0.285 0.201-0.517 0.463-0.698v0l3.701-2.559c0.91-0.629 1.864-0.986 2.863-1.072 0.995-0.092 1.935 0.082 2.818 0.522 0.889 0.435 1.658 1.122 2.307 2.06v0c0.629 0.91 0.986 1.852 1.071 2.826 0.087 0.965-0.09 1.894-0.531 2.787-0.445 0.887-1.122 1.646-2.032 2.274v0l-2.831 1.958 2.877 4.161c0.177 0.256 0.245 0.524 0.204 0.805-0.045 0.275-0.199 0.503-0.461 0.683zM207.801 243.74l4.221 6.106 2.831-1.957c0.58-0.401 1.009-0.886 1.287-1.457 0.282-0.565 0.394-1.163 0.335-1.794-0.064-0.628-0.297-1.232-0.698-1.812v0c-0.428-0.62-0.927-1.073-1.495-1.361-0.574-0.284-1.181-0.402-1.821-0.354-0.64 0.047-1.249 0.271-1.829 0.672v0zM235.206 241.665l-7.752 6.742c-0.24 0.209-0.501 0.303-0.784 0.283-0.287-0.025-0.533-0.155-0.737-0.389v0l-10.11-11.624c-0.204-0.235-0.296-0.493-0.276-0.777 0.015-0.288 0.143-0.536 0.382-0.744v0l7.752-6.742c0.24-0.209 0.494-0.306 0.763-0.293 0.273 0.019 0.507 0.141 0.702 0.365v0c0.186 0.214 0.267 0.455 0.244 0.723-0.024 0.268-0.155 0.506-0.396 0.714v0l-6.954 6.048 3.749 4.31 5.022-4.367c0.235-0.204 0.489-0.302 0.762-0.292 0.268 0.014 0.502 0.135 0.702 0.364v0c0.186 0.214 0.267 0.455 0.244 0.723-0.029 0.272-0.161 0.511-0.395 0.715v0l-5.022 4.367 3.837 4.412 6.954-6.048c0.24-0.209 0.494-0.306 0.763-0.292 0.268 0.014 0.496 0.128 0.681 0.341v0c0.2 0.229 0.288 0.478 0.264 0.746-0.024 0.268-0.155 0.506-0.395 0.715zM239.383 237.204v0c-0.214 0.235-0.463 0.359-0.746 0.373-0.288 0.009-0.547-0.092-0.778-0.301v0l-11.392-10.369c-0.23-0.209-0.352-0.456-0.365-0.739-0.018-0.288 0.079-0.549 0.293-0.784v0l2.756-3.029c0.744-0.818 1.583-1.391 2.517-1.718 0.929-0.332 1.86-0.401 2.794-0.205 0.939 0.191 1.806 0.649 2.604 1.375v0c0.756 0.688 1.263 1.482 1.521 2.38 0.262 0.893 0.266 1.812 0.012 2.758-0.254 0.946-0.753 1.828-1.497 2.647v0l-2.045 2.246 4.24 3.859c0.23 0.209 0.357 0.455 0.38 0.738 0.018 0.278-0.08 0.535-0.294 0.769zM245.677 230.289v0c-0.14 0.153-0.291 0.258-0.455 0.315-0.164 0.057-0.351 0.068-0.564 0.034v0l-7.706-1.421 0.994-1.955 7.077 1.311c0.469 0.081 0.77 0.304 0.905 0.669 0.135 0.365 0.051 0.714-0.251 1.047zM228.586 225.949l4.991 4.542 2.045-2.246c0.484-0.532 0.807-1.092 0.97-1.682 0.163-0.59 0.168-1.17 0.014-1.74-0.154-0.56-0.465-1.054-0.936-1.483v0c-0.496-0.451-1.045-0.741-1.648-0.869-0.608-0.123-1.202-0.08-1.785 0.128-0.587 0.204-1.123 0.571-1.606 1.103v0zM251.686 222.467v0c-0.563 0.778-1.212 1.422-1.947 1.931-0.733 0.519-1.5 0.877-2.3 1.075-0.8 0.198-1.571 0.22-2.313 0.067v0c-0.311-0.054-0.524-0.213-0.641-0.477-0.115-0.254-0.102-0.543 0.039-0.867v0c0.091-0.232 0.263-0.411 0.515-0.536 0.243-0.123 0.504-0.16 0.784-0.111v0c0.438 0.078 0.912 0.042 1.423-0.109 0.506-0.146 1.012-0.402 1.517-0.771 0.505-0.368 0.95-0.818 1.335-1.35v0c0.442-0.61 0.74-1.23 0.897-1.859 0.166-0.63 0.174-1.226 0.025-1.786-0.151-0.57-0.492-1.047-1.024-1.432v0c-0.678-0.49-1.465-0.663-2.363-0.519-0.888 0.143-1.816 0.742-2.785 1.798v0c-1.226 1.365-2.509 2.207-3.848 2.526-1.34 0.319-2.544 0.092-3.614-0.682v0c-0.79-0.571-1.303-1.271-1.54-2.099-0.242-0.832-0.238-1.729 0.014-2.69 0.248-0.955 0.71-1.901 1.386-2.836v0c0.518-0.717 1.078-1.272 1.678-1.665 0.604-0.399 1.232-0.678 1.885-0.837 0.654-0.15 1.326-0.201 2.017-0.153v0c0.346 0.029 0.616 0.139 0.81 0.33 0.198 0.186 0.288 0.422 0.27 0.707v0c-0.035 0.307-0.178 0.553-0.431 0.737-0.257 0.19-0.531 0.268-0.824 0.237v0c-0.464-0.054-0.918-0.028-1.361 0.077-0.449 0.102-0.884 0.29-1.305 0.566-0.421 0.275-0.822 0.676-1.202 1.203v0c-0.667 0.899-1.035 1.785-1.103 2.656-0.058 0.871 0.277 1.569 1.004 2.096v0c0.386 0.279 0.82 0.44 1.303 0.481 0.476 0.037 1.023-0.105 1.639-0.426 0.611-0.326 1.295-0.906 2.052-1.74v0c1.233-1.351 2.497-2.156 3.792-2.413 1.291-0.252 2.527 0.05 3.709 0.904v0c0.678 0.49 1.176 1.051 1.495 1.683 0.315 0.637 0.476 1.317 0.483 2.039 0.011 0.716-0.113 1.436-0.373 2.161-0.258 0.734-0.624 1.429-1.098 2.084zM261.29 206.406v0c-0.62 1.165-1.382 2.126-2.286 2.882-0.907 0.762-1.902 1.301-2.986 1.616-1.081 0.309-2.21 0.401-3.388 0.275-1.172-0.123-2.34-0.494-3.506-1.114v0c-1.153-0.614-2.108-1.373-2.863-2.276-0.756-0.904-1.307-1.89-1.654-2.96-0.344-1.075-0.452-2.202-0.327-3.38 0.123-1.172 0.494-2.34 1.115-3.505v0c0.611-1.147 1.369-2.101 2.276-2.864 0.904-0.756 1.899-1.295 2.986-1.616 1.087-0.322 2.217-0.421 3.389-0.298 1.172 0.123 2.334 0.491 3.487 1.105v0c1.165 0.62 2.126 1.382 2.882 2.285 0.762 0.907 1.313 1.901 1.653 2.983 0.34 1.082 0.449 2.208 0.327 3.38-0.126 1.178-0.494 2.34-1.105 3.487zM259.56 205.485v0c0.464-0.872 0.735-1.762 0.811-2.669 0.079-0.913-0.016-1.794-0.285-2.641-0.269-0.848-0.705-1.617-1.309-2.306-0.601-0.696-1.343-1.279-2.228-1.75v0c-0.872-0.464-1.768-0.753-2.686-0.866-0.909-0.116-1.794-0.051-2.654 0.196-0.854 0.25-1.634 0.665-2.341 1.243-0.704 0.573-1.288 1.295-1.753 2.168v0c-0.474 0.891-0.752 1.788-0.834 2.691-0.082 0.904 0.015 1.774 0.29 2.61 0.282 0.839 0.719 1.612 1.314 2.32 0.6 0.711 1.336 1.299 2.209 1.763v0c0.885 0.471 1.786 0.755 2.705 0.853 0.919 0.098 1.802 0.028 2.649-0.211 0.847-0.238 1.626-0.642 2.336-1.211 0.71-0.569 1.302-1.299 1.776-2.19zM267.218 193.168v0c-0.103 0.286-0.283 0.49-0.539 0.61-0.263 0.118-0.541 0.125-0.834 0.02v0l-14.496-5.214c-0.293-0.105-0.499-0.286-0.62-0.542-0.127-0.259-0.139-0.531-0.037-0.818v0c0.112-0.312 0.326-0.529 0.642-0.65v0l16.038-4.985-11.96-4.301c-0.293-0.105-0.499-0.286-0.62-0.543-0.127-0.259-0.139-0.531-0.037-0.817v0c0.105-0.293 0.289-0.498 0.552-0.617 0.254-0.114 0.527-0.119 0.821-0.013v0l14.496 5.213c0.293 0.105 0.504 0.284 0.633 0.536 0.121 0.256 0.129 0.531 0.023 0.824v0c-0.047 0.13-0.125 0.256-0.235 0.378-0.106 0.131-0.232 0.218-0.38 0.26v0l-16.028 4.988 11.931 4.291c0.293 0.105 0.503 0.287 0.63 0.546 0.118 0.263 0.125 0.541 0.02 0.834zM7.295 142.625c0-1.126 0.912-2.038 2.038-2.038 1.126 0 2.038 0.912 2.038 2.038 0 1.126-0.912 2.038-2.038 2.038-1.126 0-2.038-0.912-2.038-2.038zM268.545 142.625c0-1.126 0.912-2.038 2.038-2.038 1.126 0 2.038 0.912 2.038 2.038 0 1.126-0.912 2.038-2.038 2.038-1.126 0-2.038-0.912-2.038-2.038z" fill="#ff5c40" data-fill-palette-color="primary"></path></svg></g></svg></g></svg></g></svg></g></svg><rect width="280" height="280" fill="none" stroke="none" visibility="hidden"></rect></g></svg></g></svg>